# xmcd
# 
# Track frame offsets:
#     183
#     20158
#     33680
#     53713
#     69210
#     87915
#     99185
#     111558
#     126010
#     140338
#     164280
#     183505
#     195353
#     214175
#     226428
# 
# Disc length: 3161
# 
# Revision: 8
# Processed by: cddbd v1.5.2PL0 Copyright (c) Steve Scherf et al.
# Submitted via: BonkEnc v1.0.8
# 
DISCID=ce0c570f
DTITLE=Various Artist - A Tribute to Berry Gordy - The Music, the Magic, the Memories of Motown
DYEAR=0
DGENRE=R&B
TTITLE0=The Temptations - Do you love me?
TTITLE1=Marvin Gaye - Try it baby
TTITLE2=Shanice - I don't want to go back there again
TTITLE3=Four Tops - I'll be There
TTITLE4=Diana Ross - You've made me so very happy
TTITLE5=Jackie Wilson - To be loved
TTITLE6=Jackie Wilson - Lonely teardrops
TTITLE7=Smokey Robinson - Did you know (Berry's Theme)
TTITLE8=Boyz II Men - It's so hard to say goodbye to yesterday
TTITLE9=Shanice  - You are you
TTITLE10=Stevie Wonder and the Temptations - You're my (Dream come true)
TTITLE11=Barett Strong - Money (that's what I want)
TTITLE12=The Temptations - Power
TTITLE13=Marv Johnson - You've got what it takes
TTITLE14=Diana Ross and the Supremes - We couldn't get along without you
EXTD=
EXTT0=
EXTT1=
EXTT2=
EXTT3=
EXTT4=
EXTT5=
EXTT6=
EXTT7=
EXTT8=
EXTT9=
EXTT10=
EXTT11=
EXTT12=
EXTT13=
EXTT14=
PLAYORDER=
